Coordinates
version=1
nRows=14
nColumns=40
inDegrees=yes

Units are S.I. units (second, meters, Newtons, ...)
Angles are in degrees.

endheader
time	pelvis_tilt	pelvis_list	pelvis_rotation	pelvis_tx	pelvis_ty	pelvis_tz	hip_flexion_r	hip_adduction_r	hip_rotation_r	knee_angle_r	knee_angle_r_beta	ankle_angle_r	subtalar_angle_r	mtp_angle_r	hip_flexion_l	hip_adduction_l	hip_rotation_l	knee_angle_l	knee_angle_l_beta	ankle_angle_l	subtalar_angle_l	mtp_angle_l	lumbar_extension	lumbar_bending	lumbar_rotation	arm_flex_r	arm_add_r	arm_rot_r	elbow_flex_r	pro_sup_r	wrist_flex_r	wrist_dev_r	arm_flex_l	arm_add_l	arm_rot_l	elbow_flex_l	pro_sup_l	wrist_flex_l	wrist_dev_l
     29.65500000	     -6.53533508	     -5.86056283	      7.95480093	      1.07772487	      0.92671081	      0.48664225	     14.51891766	      3.64114909	    -16.26360784	     17.67859563	     17.67859563	     11.50697248	     -5.42252427	     -0.54151675	     44.11112537	     -9.63073246	      6.13317466	     62.85212699	     62.85212699	      7.59703584	    -19.05548610	     16.51249377	    -12.42467259	      3.75955486	      3.62912703	     16.87570733	    -17.37984757	     -0.59175364	     79.67664379	     44.63605783	      0.00000000	      0.00000000	      4.10323857	     -7.24863724	     -3.95162642	     36.36586829	     47.17035351	      0.00000000	      0.00000000
     29.66657143	     -6.60691934	     -5.80347711	      8.17203939	      1.07631461	      0.92697341	      0.48668653	     13.85666224	      3.69144843	    -16.37093718	     17.18376994	     17.18376994	     11.72694765	     -5.20391926	     -0.54509469	     44.91836288	     -9.10288237	      6.14567721	     60.42274608	     60.42274608	      7.75407977	    -18.94431681	     16.53430157	    -12.48511050	      3.68821341	      3.37123555	     19.55850416	    -17.08880473	     -1.12843346	     82.07169051	     44.59729245	      0.00000000	      0.00000000	      2.78423837	     -7.31022426	     -3.94769421	     33.98702225	     47.13152822	      0.00000000	      0.00000000
     29.67814286	     -6.69840537	     -5.72921768	      8.27069742	      1.07498530	      0.92721019	      0.48662233	     13.21474653	      3.67980958	    -16.68728742	     16.72932693	     16.72932693	     11.96596394	     -4.61619768	     -0.69929803	     45.47779868	     -8.59898541	      6.15278681	     57.69151033	     57.69151033	      7.59018077	    -18.79558965	     15.65039625	    -12.46527828	      3.66854243	      3.94751094	     21.68517828	    -17.67698596	     -1.29470869	     84.99869037	     44.55889625	      0.00000000	      0.00000000	      3.05792293	     -6.95542715	     -4.11464141	     28.49553513	     47.11063966	      0.00000000	      0.00000000
     29.68971429	     -6.84665450	     -5.73569326	      8.29870659	      1.07370512	      0.92718840	      0.48656624	     12.62300624	      3.77913769	    -16.83344500	     16.22695737	     16.22695737	     12.20556163	     -4.11487887	     -0.77276890	     45.97927527	     -8.10558536	      6.44390370	     54.88887257	     54.88887257	      7.61014732	    -18.47422638	     15.19343777	    -12.41250736	      3.67132206	      4.03833225	     24.34693186	    -17.54057624	     -1.64352019	     87.21248201	     44.52953825	      0.00000000	      0.00000000	      1.81990023	     -6.98245774	     -4.20820278	     26.46119865	     47.08720085	      0.00000000	      0.00000000
     29.70128571	     -6.92097045	     -5.70204984	      8.24245764	      1.07262654	      0.92729614	      0.48647568	     11.90151537	      3.85852691	    -16.97179720	     15.66945982	     15.66945982	     12.44776907	     -3.49625209	     -0.85024315	     46.15995383	     -7.66150960	      6.75699284	     51.88624912	     51.88624912	      7.64969845	    -17.93694074	     14.79550175	    -12.42989170	      3.66701993	      4.11962984	     27.12755113	    -17.37234441	     -1.77835540	     89.31952638	     44.48973784	      0.00000000	      0.00000000	      0.44330444	     -7.02957979	     -4.19164906	     24.77047611	     47.05306895	      0.00000000	      0.00000000
     29.71285714	     -6.99613822	     -5.71519316	      8.07176078	      1.07171828	      0.92729209	      0.48641087	     11.18357498	      3.98553750	    -17.07213139	     15.12025427	     15.12025427	     12.66392361	     -2.71993276	     -0.94804653	     46.16854894	     -7.36492480	      7.12940736	     48.80656653	     48.80656653	      7.81285271	    -17.05444400	     14.35158757	    -12.46180292	      3.69515142	      4.38926665	     29.83572898	    -17.25056201	     -1.80583503	     91.19583052	     44.45142404	      0.00000000	      0.00000000	     -0.92174938	     -7.09048567	     -4.14328745	     23.39396437	     47.01557486	      0.00000000	      0.00000000
     29.72442857	     -7.09939620	     -5.81442906	      7.85646938	      1.07109091	      0.92706284	      0.48629068	     10.42495055	      4.19419137	    -17.33400661	     14.46294872	     14.46294872	     12.91394986	     -1.63126056	     -1.09062624	     46.05008481	     -7.23805590	      7.52402023	     45.65660797	     45.65660797	      7.97008315	    -15.89593133	     13.52705725	    -12.38277883	      3.82367343	      4.67600832	     32.51419060	    -17.13267979	     -1.60582583	     93.05205808	     44.41158321	      0.00000000	      0.00000000	     -2.32459107	     -7.11846918	     -4.03130840	     22.10246209	     46.96008714	      0.00000000	      0.00000000
     29.73600000	     -7.14612636	     -5.89419483	      7.50829130	      1.07071366	      0.92683333	      0.48625448	      9.61204935	      4.41486890	    -17.36578165	     13.85129036	     13.85129036	     13.16802962	     -0.69950274	     -1.20251791	     45.67126804	     -7.25941684	      7.78722941	     42.46718366	     42.46718366	      8.25516355	    -14.57054147	     13.19243316	    -12.35168080	      3.90331830	      5.16470074	     35.11651637	    -17.00187163	     -1.56906200	     94.55210600	     44.38290744	      0.00000000	      0.00000000	     -3.80461164	     -7.20329532	     -3.95481891	     21.33634838	     46.90810099	      0.00000000	      0.00000000
     29.74757143	     -7.19872211	     -6.07282608	      7.14359962	      1.07064795	      0.92640266	      0.48613124	      8.71525265	      4.74210850	    -17.51583923	     13.09235313	     13.09235313	     13.39765659	      0.48078328	     -1.31144791	     45.17291518	     -7.43228536	      8.03515627	     39.32276541	     39.32276541	      8.57104547	    -13.17983657	     12.90747577	    -12.25232437	      4.10787598	      5.55378926	     37.66448508	    -16.73392511	     -1.37369530	     96.02044986	     44.35173872	      0.00000000	      0.00000000	     -5.41474470	     -7.22450369	     -3.82341831	     20.84283502	     46.83397819	      0.00000000	      0.00000000
     29.75914286	     -7.20918990	     -6.24346488	      6.70199856	      1.07090620	      0.92586307	      0.48598383	      7.73326675	      5.07244755	    -17.57386852	     12.30915627	     12.30915627	     13.65956567	      1.68456115	     -1.41840831	     44.47060941	     -7.71002908	      8.08187515	     36.26421437	     36.26421437	      8.85539470	    -11.92664105	     12.90651459	    -12.17738888	      4.30325351	      5.99370768	     40.12010255	    -16.40692125	     -1.14797127	     97.29881373	     44.32438848	      0.00000000	      0.00000000	     -7.10691757	     -7.29003240	     -3.68279985	     20.59982978	     46.75101913	      0.00000000	      0.00000000
     29.77071429	     -7.19076220	     -6.51638944	      6.25102594	      1.07150333	      0.92513120	      0.48573780	      6.64189541	      5.51089300	    -17.73414270	     11.41034950	     11.41034950	     13.89321730	      3.11530011	     -1.51470542	     43.65907769	     -8.12288203	      8.02948876	     33.40287103	     33.40287103	      9.07347000	    -10.82707200	     13.03997469	    -12.06133922	      4.61644144	      6.28732300	     42.48314663	    -15.91779267	     -0.71580797	     98.44458843	     44.29793301	      0.00000000	      0.00000000	     -9.01144993	     -7.28128951	     -3.43164398	     20.74841866	     46.62650584	      0.00000000	      0.00000000
     29.78228571	     -7.20162594	     -6.77514408	      5.75861068	      1.07237791	      0.92407636	      0.48540814	      5.60327964	      5.89131451	    -17.94202386	     10.62829435	     10.62829435	     14.22504285	      4.67258471	     -1.62175008	     42.78492541	     -8.56660452	      7.73606540	     30.77852319	     30.77852319	      9.04231043	    -10.06896324	     13.01218190	    -11.81751196	      4.95590518	      6.30142385	     45.07280524	    -15.22369711	      0.30638722	     98.77597367	     44.56871009	      0.00000000	      0.00000000	    -12.43334952	     -8.41034114	      4.66315555	     24.23832565	     44.82821132	      0.00000000	      0.00000000
     29.79385714	     -7.17961385	     -6.99356356	      5.22913679	      1.07352309	      0.92297723	      0.48503719	      4.50892346	      6.26932788	    -17.71191487	      9.83888015	      9.83888015	     14.51920462	      5.60634486	     -1.67630047	     41.77838617	     -9.01014811	      7.19319700	     28.43663273	     28.43663273	      9.03611441	     -9.54744211	     13.58315848	    -11.61338426	      5.19484121	      6.77176198	     46.98813681	    -14.75344047	      0.40995166	     99.77133355	     44.54895842	      0.00000000	      0.00000000	    -14.04077955	     -8.34716346	      4.71081818	     24.01373674	     44.79780703	      0.00000000	      0.00000000
     29.80542857	     -7.13242811	     -7.25062398	      4.71343097	      1.07497849	      0.92167958	      0.48449105	      3.29893574	      6.67129464	    -17.60177880	      8.93264534	      8.93264534	     14.80295015	      6.77420399	     -1.69638097	     40.74977842	     -9.48374972	      6.46396753	     26.49976102	     26.49976102	      8.90134169	     -9.26740268	     14.13359428	    -11.37258385	      5.50120425	      7.01713260	     48.79171090	    -14.09964489	      0.76109067	    100.69299451	     44.52453718	      0.00000000	      0.00000000	    -15.82772186	     -8.24404368	      4.80594514	     24.09882696	     44.75132833	      0.00000000	      0.00000000
